<?xml version="1.0" encoding="UTF-8"?> <svg xmlns="http://www.w3.org/2000/svg" xmlns:xlink="http://www.w3.org/1999/xlink" width="455" height="410" viewBox="0 0 455 410"><defs><clipPath id="a"><rect width="455" height="410" transform="translate(1465 664)" fill="#fff" stroke="#707070" stroke-width="1"></rect></clipPath></defs><g transform="translate(-1465 -664)" clip-path="url(#a)"><path d="M48.849,7.406,438.631,34.662s78.4,170.94-45.261,233.015-149.082-7.739-241.467-11S29.848,279.136,29.848,279.136Z" transform="translate(1972.277 1079.939) rotate(176)" fill="#9dc9d9"></path><g transform="translate(7600.391 8939.436)"><path d="M2923.7,2261.929c-2.044-17.984-5.045-35.969-5.951-53.354-.193-3.848-.387-7.732-.49-11.6l8.021-.382q13.641,25.091,27.279,50.158c2.8,5.146,5.569,10.186,8.234,15.179h76.844a254.571,254.571,0,0,0-9.091-23.819l-6.371-14.418c-.955-2.215-1.922-4.427-2.934-6.627,0,0-12.926-32.068-20.075-52.413s-8.522-28.969-8.522-28.969l-.407-4.112-.173-1.855-.159-1.62-1.623-16.526-.2-2.068-.229-2.343-1.69.594-2.085.741-5.962,2.105a16.251,16.251,0,0,0-2.312-5.46,5.6,5.6,0,0,0-.38-.512,10.958,10.958,0,0,0-1.749-1.74c-10.874-8.754-40.751-2.911-52.605-2.508-1.419.051-2.708-.368-4.119-.412-1.368-.037-2.787.2-4.175.284a27.248,27.248,0,0,1-4.088-.3c-1.683-.151-3.344.3-5.048.121-10.493-1.135-31.14-4.138-40.933.5a15.064,15.064,0,0,0-3.447,2.278l-6.628-1.117-5.286,27.233-1.248,6.45,7.3,126.51Z" transform="translate(-8748.082 -10127.865)" fill="#393762"></path><g transform="translate(-5971.047 -8268.129)"><g transform="translate(0 0)"><g transform="translate(167.295 104.607)"><path d="M588.814,2102.626c15.37,16.889,24.507,66.075-9.228,68.462-11.894.842-23.088-7.094-32.859-12.918-15.073-8.984-30.712-15.5-43.512-28.236-24.4-24.277-56.812-80.217-1.686-83.484,43.618-2.585,71.4,32.6,93.031,64.054C594.065,2112.517,593.5,2110.861,588.814,2102.626Z" transform="translate(-471.279 -2046.317)" fill="#80a5f8"></path></g><path d="M844.566,2107.719c-1.763,16.382,3.308,33.623-2.56,49.5-4.821,13.044,7,20.16-27.024,26.141s-109.062-2.217-109.062-2.217a16.557,16.557,0,0,1-14.222-7.823l-.066-.11c-5-8.4-.372-12.107-.314-20.45.076-10.838-4.143-22.346-5.777-33.142-1.436-9.484-3.879-20.5-5.794-31.833-4.006-23.709-6.031-48.522,11.794-66.96,21.377-22.112,32.923-8.108,58.58-4.83,25.481,3.254,50.24-11.707,75.926-5.207,27.323,6.915,37.943,31.6,28.705,56.063A164.728,164.728,0,0,0,844.566,2107.719Z" transform="translate(-629.166 -1916.791)" fill="#80a5f8"></path><g transform="translate(134.533 63.173)"><path d="M945.349,1924.3l1.919-.14c.489.488.953.989,1.386,1.5-.167.665-.308,1.334-.418,2.01C947.249,1926.572,946.279,1925.448,945.349,1924.3Z" transform="translate(-945.349 -1924.157)" fill="#f8c208"></path></g><g transform="translate(116.083 51.75)"><path d="M937.717,1937.042a17.4,17.4,0,0,1-15.187,13.083c-9.3.744-17.41-6.581-18.023-16.24l-1.11-17.437-.844-13.281-.738-11.583,13.851-1.106a117.426,117.426,0,0,0,9.287,8.4c2.844,3.295,5.839,6.506,8.583,9.879.047.093.084.189.131.282a4.8,4.8,0,0,0,1.512,1.8q1.042,1.372,2,2.794l1.119,17.554A18.246,18.246,0,0,1,937.717,1937.042Z" transform="translate(-901.815 -1890.478)" fill="#ffb6a6"></path></g><g transform="translate(126.847 64.52)"><path d="M901.978,1935.274l1.1,2.744a19.04,19.04,0,0,0,24.6,10.553l-8.2-20.441Z" transform="translate(-901.978 -1928.129)" fill="#15203d"></path></g><g transform="translate(106.155 28.871)"><path d="M957.308,1832.276a5.612,5.612,0,0,1-.539,3.917,13.157,13.157,0,0,1-2.872,3.5,4.806,4.806,0,0,0-1.28,1.576,4.015,4.015,0,0,0-.18,1.853c.36,4.514,3.082,9.542-.183,13.368-3.686,4.32-9.778,7.42-15.044,9.19-3.4,1.157-7.408,1.756-10.337-.3-2.316-1.634-3.377-4.331-4.3-7.1a32.646,32.646,0,0,1-2.355-5.869c-.109-.167-.211-.316-.32-.483-2.017-2.983-5.09-6.19-3.9-9.615.993-2.816,4.334-3.863,6.468-5.982.443-.625.919-1.221,1.419-1.806.9-1.425,1.567-3.009,2.409-4.473a14.683,14.683,0,0,1,6.725-6.129,11.309,11.309,0,0,1,4.988-.874,9.392,9.392,0,0,1,3.942,1.076c2,1.062,3.548,3.133,5.636,3.99,1.812.744,3.66.227,5.616.674a5.473,5.473,0,0,1,3.944,3.007A4.073,4.073,0,0,1,957.308,1832.276Z" transform="translate(-915.73 -1823.024)" fill="#dc464c"></path></g><g transform="translate(112.616 38.385)"><path d="M899.924,1869.1l6.605,16.462a18.041,18.041,0,0,0,1.583,3.054,14.963,14.963,0,0,0,1.359,1.919c.047.065.12.142.167.207l.018-.007a18.923,18.923,0,0,0,21.564,5.343l2.33-.951a10.536,10.536,0,0,0,5.75-13.64l-9.092-22.658a12.325,12.325,0,0,0-16.054-6.853l-8.488,3.466A10.552,10.552,0,0,0,899.924,1869.1Z" transform="translate(-899.169 -1851.076)" fill="#ffb6a6"></path></g><g transform="translate(110.895 35.557)"><path d="M905.106,1851.9a6.983,6.983,0,0,1,5.274-.806l10,2.206a14.315,14.315,0,0,0,5.834.059l.828-2.312c-3.307-4.2-7.2-8.042-12.792-8.3-3.321-.153-6.6,1.126-9.663,2.263-.949.352-2.578,1.424-3.564,1.4a2.252,2.252,0,0,0-1.154.217,9.89,9.89,0,0,1-2.542,3.693,11.457,11.457,0,0,0-3.617,6.573h0a15.222,15.222,0,0,0,2.541,11.266l3.64,5.19,7.305-.129,6.252,15.582c2.593,6.462,9.8,10.076,16.3,7.649a12.783,12.783,0,0,0,7.356-16.732l-3.877-9.662-6.827,2.787a12.829,12.829,0,0,1-14.08-2.962l-6.348-5.493-3.187-3.641A6.735,6.735,0,0,1,905.106,1851.9Z" transform="translate(-893.496 -1842.738)" fill="#dc464c"></path><path d="M2.153,2.867A8.279,8.279,0,0,1,.4,2.677a.5.5,0,1,1,.217-.983A7.546,7.546,0,0,0,7,.119.5.5,0,0,1,7.7.183a.5.5,0,0,1-.059.709A8.626,8.626,0,0,1,2.153,2.867Z" transform="matrix(0.985, -0.174, 0.174, 0.985, 30.553, 33.621)" fill="#fff"></path></g><g transform="translate(116.821 64.439)"><path d="M988.18,1940.555a12.62,12.62,0,0,1-2.669.616l-.844-13.281a9.74,9.74,0,0,1,1.562.28,6.47,6.47,0,0,1,4.32,3.219l1.463,3.015C993.116,1936.682,991.417,1939.43,988.18,1940.555Z" transform="translate(-984.667 -1927.89)" fill="#15203d"></path></g><g transform="translate(112.437 62.144)"><path d="M992.163,1930.645l-5.291,2.16a6.451,6.451,0,0,1-8.429-3.59l-.34-.847a4.85,4.85,0,0,1,2.653-6.293l1.228-.5a6.036,6.036,0,0,1,7.887,3.359Z" transform="translate(-977.753 -1921.125)" fill="#ffb6a6"></path></g><g transform="translate(128.01 45.869)"><g transform="translate(1.673 8.679)"><path d="M955.932,1899.586a4.081,4.081,0,0,0-.992,1.5.575.575,0,0,0,.4.766h0a.57.57,0,0,0,.667-.348,2.425,2.425,0,0,1,1.63-1.59,1.494,1.494,0,0,1,1.243.262.584.584,0,0,0,.72,0h0a.574.574,0,0,0-.009-.9,2.644,2.644,0,0,0-2.207-.481A3.125,3.125,0,0,0,955.932,1899.586Z" transform="translate(-954.9 -1898.73)" fill="#2e2e2e"></path></g><g transform="translate(13.027 4.642)"><path d="M923.019,1887.588a3.621,3.621,0,0,0-.909,1.425.6.6,0,0,0,.412.756h0a.514.514,0,0,0,.632-.316,2.134,2.134,0,0,1,1.521-1.487,1.5,1.5,0,0,1,1.209.295.563.563,0,0,0,.7.024h0a.559.559,0,0,0-.038-.873,2.648,2.648,0,0,0-2.146-.538A2.775,2.775,0,0,0,923.019,1887.588Z" transform="translate(-922.079 -1886.825)" fill="#2e2e2e"></path></g><g transform="translate(0 4.264)"><path d="M966.1,1888.6a.442.442,0,0,0,.311-.126l2.05-2a.446.446,0,0,0-.622-.639l-2.05,2a.446.446,0,0,0,.311.765Z" transform="translate(-965.654 -1885.711)" fill="#2e2e2e"></path></g><g transform="translate(13.268)"><path d="M927.451,1874.115a.446.446,0,0,0,.013-.891l-2.86-.083a.462.462,0,0,0-.459.432.446.446,0,0,0,.432.459l2.86.083Z" transform="translate(-924.145 -1873.14)" fill="#2e2e2e"></path></g></g><g transform="translate(155.333)"><path d="M30.186,43.164c10.512,2.7,26.494-8.63,29.334-14.934S71.2,5.521,70.063,1.871C69.606.393,56.842,1.72,52,0c-2.12,4.589-9.308,23.883-16.519,27.235S15.566,29.28,9.908,25.161C7.047,22.9,5.552,23.345,8.546,26.348c-2.184-1.532-9.649-3.625-3.473.174C.252,23.85.031,25.788,4.411,28.149c-4.968-2.31-5.526-.782-.742,1.709C-6.8,26.1,8.207,35.743,10.634,36.653A84.9,84.9,0,0,0,30.186,43.164Z" transform="translate(7.567 46.694) rotate(10)" fill="#e07b53"></path><g transform="translate(23.062 128.127)"><path d="M734.06,2226.6l-9.416,3.118a1.678,1.678,0,0,1-1.823-.525,1.526,1.526,0,0,1-.357-.924,8.687,8.687,0,0,1,.115-1.723,8.384,8.384,0,0,1,.3-1.172c.011-.035.016-.073.027-.108a8.572,8.572,0,0,1,1.067-2.159c2.942-4.308,7.5-11.014,7.489-11.1l-.384-.824c.052-.013.1-.029.155-.042l-18.806-62.862a20.888,20.888,0,0,1,10.459-24.4l15.6-8.219q3.372,27.646,6.744,55.292c1.057,8.66,1.911,17.348,3.067,26,.736,5.51,3.734,14.8.635,19.835C745.811,2221.839,739.487,2224.8,734.06,2226.6Z" transform="translate(-711.565 -2115.662)" fill="#e07b53"></path></g><g transform="translate(54.072 143.328)"><path d="M642.633,2271.415l-9.416,3.117a1.678,1.678,0,0,1-1.823-.525,1.524,1.524,0,0,1-.356-.924,8.649,8.649,0,0,1,.114-1.722,8.358,8.358,0,0,1,.3-1.172c.011-.035.015-.073.027-.109a8.582,8.582,0,0,1,1.067-2.159c2.942-4.308,7.5-11.014,7.489-11.1l-.384-.824c.052-.014.1-.03.155-.042L621,2193.1a20.888,20.888,0,0,1,10.458-24.4l15.6-8.219,6.744,55.293c1.057,8.66,1.911,17.347,3.066,26,.736,5.509,3.734,14.8.635,19.835C654.383,2266.656,648.06,2269.618,642.633,2271.415Z" transform="translate(-620.138 -2160.479)" fill="#e07b53"></path></g><g transform="translate(19.462 42.234)"><path d="M540.733,1983c4.038,1.965,8.546,3.489,13.32,5.837,10.684,5.254,21.092,11.658,32.769,14.5,7.751,1.888,21.294,6.554,28.874,2.8,8.787-4.356,8.229-16.744,10.522-24.937,3.277-11.7,6.608-18.409,5.006-30.383-1.8-13.492-4.918-25.654-8.211-38.874-.565-2.214-1.107-4.613-1.672-7.12-.1-.38-.184-.771-.271-1.173-2.346-10.845-2.15-25.86-11.152-33.637-9.487-8.2-34.178-11.566-42.531-.782-7.408,9.563-11.983,20.452-12.575,32.288-.539,10.766-.915,17.855-7.509,27.13-9.119,12.828-27.175,28.345-18.424,43.735C531.981,1977.842,536.039,1980.721,540.733,1983Z" transform="translate(-526.548 -1862.424)" fill="#fee5e9"></path></g><g transform="translate(68.494 41.209)"><path d="M612.433,1871.581c3.234,2.323,7.109-.619,10.04-1.422-1.216.336,3.918,9.117,10.235,5.807,3.278-1.725,5.286-6.132,5.178-10.17v-.027a4.622,4.622,0,0,0-2.541-3.87,22.888,22.888,0,0,0-10.906-2.5,27.976,27.976,0,0,0-12.167,2.821C610.1,1865.145,608.928,1869.085,612.433,1871.581Z" transform="translate(-610.207 -1859.403)" fill="#fff"></path></g><g transform="translate(49.53 43.171)"><path d="M707.72,1865.221c-8.365,0-15.882-1.08-18.858,8.508-1.98,6.378-1.952,15.4-1.234,22.138.5,4.679,1.8,11.777,7.8,8.451,4.132-2.289,4.753-8.588,5.765-12.626,1.162-4.639,1.541-9.044,2.432-13.629C704.177,1875.217,705.567,1867.381,707.72,1865.221Z" transform="translate(-687.181 -1865.184)" fill="#fee5e9"></path></g><g transform="translate(75.207 29.372)"><path d="M623.2,1824.5v13.821c0,4.151,3.708,7.517,8.281,7.517a8.7,8.7,0,0,0,5.856-2.2,7.169,7.169,0,0,0,2.425-5.315V1824.5Z" transform="translate(-623.203 -1824.502)" fill="#e07b53"></path></g><g transform="translate(75.207 29.372)"><path d="M632.654,1824.5v10.678c4.648-1,9.959-3.3,13.357-6.343V1824.5Z" transform="translate(-632.654 -1824.502)" fill="#15203d"></path></g><path d="M30.186,30.294C40.7,33,56.681,21.664,59.52,15.36s4.34-9.84,3.208-13.489C62.271.393,49.507,1.72,44.667,0c-2.12,4.589-1.973,11.013-9.184,14.365S15.566,16.41,9.908,12.291c-2.861-2.256-4.355-1.816-1.361,1.187-2.184-1.532-9.649-3.625-3.473.174C.252,10.98.031,12.918,4.411,15.279c-4.968-2.31-5.526-.782-.742,1.709-10.466-3.76,4.538,5.885,6.965,6.794A84.9,84.9,0,0,0,30.186,30.294Z" transform="matrix(0.883, -0.469, 0.469, 0.883, 60.652, 100.756)" fill="#e07b53"></path><g transform="translate(93.405 49.854)"><path d="M545.689,1885.331c11.669-.035,23.531,18.469,13.555,27.656-4.354,4.009-14.455,4.356-19.812,2.166-4.269-1.745-4.869-4.435-4.88-9.372-.015-6.455,3.135-20.631,11.618-20.892C546.486,1885.919,547.418,1887.279,545.689,1885.331Z" transform="translate(-534.551 -1884.888)" fill="#fee5e9"></path></g><g transform="translate(65.927)"><g transform="translate(0 3.684)"><path d="M619.031,1761.546c1.948-6.291,6.527-16.416,14.828-11.457,2.337,1.4,6.249,7.059,7.745,9.313a22.154,22.154,0,0,1,3.823,11.285,9.605,9.605,0,0,1-1.206,5.607c-1.671,2.639-5.215,4.094-8.79,4.452-13.538,1.354-19.857-6.067-17.014-17.042C618.581,1763.072,618.785,1762.34,619.031,1761.546Z" transform="translate(-617.748 -1748.766)" fill="#e07b53"></path></g><g transform="translate(2.206)"><path d="M457.746,1738.679c4.691-2.058,13.07.468,17,1.98a26.7,26.7,0,0,1,9.874,6.56c5.232,5.695,9.029,12.469,14.012,18.383,4.734,5.618,10.4,8.507,17.224,12.3,6.525,3.626,13.349,7.526,16.972,13.4a16.341,16.341,0,0,1-.17,17.719c-3.531,5.24-10.41,8.628-17.614,8.675-17.968.117-31.686-22.374-36.675-37.535-2.283-6.937-6.055-16.469-.205-21.9-4.573,1.279-12.447-1.674-16.612-4.4-3.92-2.569-9.721-9.488-5.7-13.858A5.6,5.6,0,0,1,457.746,1738.679Z" transform="translate(-454.487 -1737.904)" fill="#161411"></path></g><g transform="translate(18.614 19.636)"><g transform="translate(0 0)"><circle cx="5.84" cy="5.84" r="5.84" transform="translate(0.55 12.217) rotate(-92.699)" fill="#e07b53"></circle></g></g><path d="M.9,2.089h0A1.053,1.053,0,0,1,.01.9h0A1.055,1.055,0,0,1,1.2.01h0A1.054,1.054,0,0,1,2.087,1.2h0A1.052,1.052,0,0,1,.9,2.089Z" transform="matrix(0.999, -0.052, 0.052, 0.999, 12.331, 20.988)" fill="#2e2e2e"></path><path d="M.9,2.089h0A1.053,1.053,0,0,1,.011.9h0A1.051,1.051,0,0,1,1.2.01h0A1.053,1.053,0,0,1,2.087,1.2h0A1.054,1.054,0,0,1,.9,2.089Z" transform="matrix(0.999, -0.052, 0.052, 0.999, 3.712, 17.622)" fill="#2e2e2e"></path><path d="M1.008,0a.308.308,0,0,0-.3.233L.01,2.951a.312.312,0,0,0,.226.379.308.308,0,0,0,.373-.223l.7-2.721A.309.309,0,0,0,1.084.01.258.258,0,0,0,1.008,0Z" transform="translate(8.772 23.635) rotate(-169)" fill="#2e2e2e"></path><path d="M1.322,0A5.086,5.086,0,0,0,.243.116a.309.309,0,1,0,.133.6A4.636,4.636,0,0,1,4.3,1.688a.31.31,0,0,0,.4-.475A5.3,5.3,0,0,0,1.322,0Z" transform="translate(9.541 27.33) rotate(-169)" fill="#fff"></path></g></g><g transform="translate(176.297 127.531)"><path d="M470.532,2119.4a63.861,63.861,0,0,1,17.982,4.507.591.591,0,0,0,.774-.293.575.575,0,0,0-.347-.745,64.4,64.4,0,0,0-18.389-4.6.56.56,0,0,1-.52-.621c.036-.189.074-.379.118-.554a.525.525,0,0,1,.536-.39,56.742,56.742,0,0,1,18.871,3.881.6.6,0,0,0,.777-.3.572.572,0,0,0-.35-.735,58.153,58.153,0,0,0-18.066-3.92.529.529,0,0,1-.344-.934c.017-.018.043-.032.06-.048a9.421,9.421,0,0,1,3.8-.719c18.663-.486,34.417,9.7,51.238,16.212,21.111,8.177,88.819,42.977,58.288,73.536-21.2,21.215-49.492-22.005-60.712-38.34a107.892,107.892,0,0,1-10.831-16.515,66.2,66.2,0,0,0-8.7-5.842c-7.132-3.966-13.277-9.688-20.207-14.048-.092-.062-.177-.111-.263-.16a42.55,42.55,0,0,0-7.35-3.231c-1.648-.584-4.251-.651-5.522-1.976a.5.5,0,0,1,.483-.831c5.1.784,10.839,2.113,15.271,4.395a.612.612,0,0,0,.808-.227.572.572,0,0,0-.273-.767c-4.991-2.569-11.523-3.957-17.067-4.723a.531.531,0,0,1-.465-.4,8.141,8.141,0,0,1-.171-1.059A.5.5,0,0,1,470.532,2119.4Z" transform="translate(-469.956 -2113.906)" fill="#ffb6a6"></path></g><g transform="translate(0 89.787)"><path d="M1015,2094.144c.159-7.6,2.909-15.546,9.065-22.97,8.149-9.828,19.349-16.931,27.13-28.385,9.675-14.244,18.925-32.346,36.323-38.22,12.949-4.371,35.015-1.9,40.651,12.887,4.817,12.645-8.327,26.7-14.088,37.245-7.7,14.1-16.7,27.669-22.529,42.708-3.732,9.624-7.775,18.269-15.889,24.559C1047.133,2144.085,1014.431,2121.369,1015,2094.144Z" transform="translate(-1014.994 -2002.625)" fill="#80a5f8"></path></g><path d="M1.785,7.418A.583.583,0,0,1,1.255,6.9L.017.863a.721.721,0,0,1,.4-.841.548.548,0,0,1,.661.495L2.316,6.56a.715.715,0,0,1-.4.836A.37.37,0,0,1,1.785,7.418Z" transform="translate(139.273 55.308) rotate(-11)" fill="#2e2e2e"></path></g></g><g transform="translate(-6040.921 -8187.732)"><g transform="translate(51.707 0)"><path d="M2018.218-792.4c-8.622-16.716-32.164-25.944-43.929-22.1a33.458,33.458,0,0,0-13.279,8.271c-8.017,8.2-5.7,20.977-13.315,28.7-5.908,5.989-16.12,3.155-22.071,10.262-5.722,6.832-3.141,15.949,4.913,19.269,6.164,2.542,14.334,1.228,18.28,7.577,1.74,2.8,1.093,6.415,3.784,9.124,7.269,7.315,19.747,3.351,28.127.33,11.817-4.26,14.42,2.169,24.465,7.553.257.138.52.267.781.4,1.45,2.931,3.571,5.359,8.3,8.164,12.388,7.341,21.549,20.486,34.542,19.761,12.589-.7.952-17.855-11.2-42.03S2026.839-775.683,2018.218-792.4Z" transform="translate(-1922.539 815.365)" fill="#161411"></path><g transform="translate(37.293 17.138)"><g transform="translate(8.459 22.061)"><path d="M2055.654-724.867l.006.079-.2,8.391-.093,4.326-.575,23.865a13.692,13.692,0,0,1-14.11,13.128,13.741,13.741,0,0,1-13.524-13.795l.205-8.551.266-10.839.233-9.656.014-1.263.026-.832.121-4.987.011-.444c0-.1.008-.183.012-.285.288.046.575.092.861.115a17.609,17.609,0,0,0,1.773.145l10.019.239,5.454.13,3.37.077,2.448.058,1.412.037Z" transform="translate(-2027.159 725.729)" fill="#e07b53"></path></g><g transform="translate(7.496 22.554)"><path d="M2048.517-723.248c-.245,1.076-.516,2.12-.857,3.135-.228.722-.48,1.424-.754,2.128a34.906,34.906,0,0,1-5.433,9.142,42.918,42.918,0,0,1-16.516,12.146l.265-10.84.233-9.656.014-1.262.026-.832.513-.415a22.869,22.869,0,0,1,12.284-4.8c.927-.073,1.844-.111,2.8-.094a25.352,25.352,0,0,1,2.655.224,23.057,23.057,0,0,1,3.291.663C2047.548-723.582,2048.026-723.426,2048.517-723.248Z" transform="translate(-2024.957 724.603)" fill="#161411"></path></g><path d="M2026.572-772.182a14.807,14.807,0,0,1,.07-3.995,17.1,17.1,0,0,0-7.48,2.109,16.633,16.633,0,0,0-6.19,5.86,16.9,16.9,0,0,0-1.718,3.885l-.981,3.293-.45,1.513-1.339,4.525a16.847,16.847,0,0,0,7.141,18.784,17.342,17.342,0,0,0,3.221,1.657c.445.169.9.327,1.366.461l.035.02a17.309,17.309,0,0,0,13.777-1.7,16.426,16.426,0,0,0,6.447-6.926,13.955,13.955,0,0,0,.671-1.586c.123-.317.223-.631.323-.957l1.437-4.874.612-2.06.71-2.4a13.681,13.681,0,0,0,.342-1.436l0-.011C2035.168-755.753,2027.7-763.016,2026.572-772.182Z" transform="translate(-2007.816 776.176)" fill="#e07b53"></path><g transform="translate(32.205 23.431)"><path d="M2086.463-719.842l-.281,11.875a7.815,7.815,0,0,1-4.685-7.975,8.894,8.894,0,0,1,4.289-6.656c.179.176.357.363.512.549A10.8,10.8,0,0,1,2086.463-719.842Z" transform="translate(-2081.458 722.598)" fill="#161411"></path></g><g transform="translate(31.385 19.905)"><path d="M2083.109-717.4a7.452,7.452,0,0,0,10.09-2.379,7.049,7.049,0,0,0-2.456-9.828,7.452,7.452,0,0,0-10.09,2.379A7.049,7.049,0,0,0,2083.109-717.4Z" transform="translate(-2079.583 730.659)" fill="#e07b53"></path></g></g></g><g transform="translate(6.915 167.964)"><path d="M1820.114-276.956H2011.66s-6.848-46.217-15.544-80.609c-3.923-15.513-13.385-34.687-13.734-35.4-.131-.239-.273-.485-.4-.725-1.209-2.132-2.419-4.291-3.7-6.464-.328-.595-.683-1.2-1.052-1.8v-.014c-.137-.239-.28-.472-.424-.724-2.132-3.683-4.483-7.5-7.182-11.583a.826.826,0,0,1-.151-.246c-1.333-1.975-2.74-4.011-4.257-6.116-.519-.724-1.066-1.469-1.626-2.228-.144-.191-.28-.376-.424-.561-.492-.677-.984-1.333-1.517-2-.656-.9-1.36-1.8-2.077-2.706-.4-.506-.813-1.025-1.244-1.531-.417-.525-.868-1.066-1.3-1.592-26.486.082-52.979.164-79.465-.028-.021.028-.048.035-.069.055a16.876,16.876,0,0,1-.827,1.695c-.164.355-.35.7-.525,1.025a.612.612,0,0,1-.088.178c-.184.4-.383.792-.594,1.155a.483.483,0,0,1-.041.087c-.088.171-.177.335-.266.513-.184.362-.369.718-.56,1.073,3.987,2.672,9.459-15.46-5.285,7.939-4.454,7.069-14.067,25.994-22.454,49.773C1833.241-329.2,1820.114-276.956,1820.114-276.956Z" transform="translate(-1820.114 431.288)" fill="#f88097"></path><path d="M1900.634-330.523c.724-3.362-1.176-5.528-4.052-7.085h-.005c-.226.4-.444.806-.67,1.209q-1.181,3.5-2.2,7.045h6.594A8.937,8.937,0,0,0,1900.634-330.523Z" transform="translate(-1861.523 378.576)" fill="#f88097"></path><path d="M14.728,29.959l8.539,2.827a1.521,1.521,0,0,0,1.653-.476,1.381,1.381,0,0,0,.323-.838,7.848,7.848,0,0,0-.1-1.562,7.588,7.588,0,0,0-.268-1.063c-.01-.032-.014-.067-.025-.1a7.78,7.78,0,0,0-.968-1.958c-2.668-3.907-6.8-9.987-6.791-10.063l.348-.747c-.047-.012-.093-.027-.141-.038l1.278-11.08S2.872-4.766,1.824,3.075c-.668,5-3.386,13.418-.576,17.987S9.807,28.33,14.728,29.959Z" transform="matrix(0.998, 0.07, -0.07, 0.998, 30.156, 78.838)" fill="#ffb6a6"></path><path d="M1865.821-376.7c-.085.4-8.036,38.617-8.174,39l15.711,4.471c1.07-2.6,24.523-47.564,25.269-50.275,4.242-15.922-10.277-30.668-17.438-35.467q-.594-.4-1.107-.7l-12.054,3.71-36.189-3.519.868,13.141a19.887,19.887,0,0,0,16.2,18.236c3.43,1.264,9.013,2.241,12.854,4.312h.007C1864.646-382.224,1866.546-380.058,1865.821-376.7Z" transform="translate(-1826.711 424.749)" fill="#ffd780"></path></g><g transform="translate(49.67 171.559)"><path d="M1917.881-421.127c5.3.013,17.816,9.011,23.181,11.141,8.884,3.527,18.523,6.994,28.083,9.021,14.339,3.04,37.933,7.943,51.635,1.745,7.121-3.221,13.275-12.592,8.829-19.133-5.583-8.212-12.558-3.374-21.322-2.543C1979.154-418.136,1947.307-421.056,1917.881-421.127Z" transform="translate(-1917.881 423.066)" fill="#f9f7f0"></path></g><g transform="translate(135.589 98.049)"><path d="M2115.467-490.814c-4.122-8.334,4.36-22.51,5.786-30.512,3.449-19.34,5.936-39.327,8.938-58.482,3.459-22.068,21.651-7.094,27.523,4.124,5.738,10.962,8.122,23.156,9.032,35.746.967,13.374-.292,39.577-12.979,48.118-6.928,4.662-28.14,9.857-35.492,4.348A9.283,9.283,0,0,1,2115.467-490.814Z" transform="translate(-2114.348 591.159)" fill="#e07b53"></path></g><g transform="translate(40.606 81.88)"><path d="M1897.651-597.539c10.66-26.6,33.336-30.593,33.336-30.593,14.666,10.266,33,8.8,33,8.8l.146-.069c10.666-.2,19.636-4.137,25.428-7.026a15.245,15.245,0,0,1,6.54-1.582l.15-.122c24.931,1.466,41.064,32.264,41.064,32.264.262.143-.281.353-1.374.6a1.876,1.876,0,0,1-.457.39l-26.7,15.656,4.1,46.8s-40.921,9.61-96.334-2.445l-.177-47.157-18.449-12.83a1.773,1.773,0,0,1-.442-2.468A1.817,1.817,0,0,1,1897.651-597.539Z" transform="translate(-1897.153 628.132)" fill="#f9f7f0"></path></g><g transform="translate(75.173 75.629)"><path d="M2043.658-634.709s-23.464-16.865-67.461-.733l14.175,24.6a9.28,9.28,0,0,0,12.673,3.408q.279-.161.545-.34Z" transform="translate(-1976.197 642.427)" fill="#e07b53"></path></g><g transform="translate(27.632 169.341)"><path d="M2003.986-428.139l-82.62,18.859h-.037c-1.484.018-2.986.046-4.479.093-6.323.157-12.945-.668-19.359-.056-.667.074-1.344.139-2.021.25-.751.1-1.5.232-2.234.4-1.845.4-3.69.88-5.544,1.474a61.319,61.319,0,0,0-17.459,8.6,18.332,18.332,0,0,0-1.521,1.242,5.047,5.047,0,0,0-1.178,1.493.123.123,0,0,0-.027.073.527.527,0,0,0,.368.649.529.529,0,0,0,.439-.073c.25-.148.481-.3.723-.426,1.113-.677,2.262-1.308,3.44-1.891a57.41,57.41,0,0,1,12.878-4.682.573.573,0,0,1,.7.4.6.6,0,0,1-.454.7,55.844,55.844,0,0,0-13.574,5.081l-.194.1c-.683.338-1.341.72-1.991,1.118s-1.288.771-1.932,1.188a.518.518,0,0,0-.213.63c.065.158.131.334.213.51a.54.54,0,0,0,.721.249c.017-.008.033-.017.048-.027.278-.167.575-.324.871-.481.557-.325,1.132-.631,1.734-.909a68.508,68.508,0,0,1,15.1-5.239.584.584,0,0,1,.7.426.6.6,0,0,1-.473.677,64.681,64.681,0,0,0-15.8,5.656c-.362.186-.714.362-1.057.565-.157.074-.315.175-.454.25a.5.5,0,0,0-.225.67.532.532,0,0,0,.058.091,10.009,10.009,0,0,0,.751.779.289.289,0,0,0,.167.084c.028.028.046.046.056.028a.521.521,0,0,0,.389-.038c4.979-2.512,11.117-5.073,16.68-5.794a.583.583,0,0,1,.649.481.6.6,0,0,1-.538.64c-4.923.649-10.384,2.791-15.02,5.034a.579.579,0,0,0-.315.4.5.5,0,0,0,.39.565,5.625,5.625,0,0,0,2.939-.473c.955-.362,1.9-.806,2.717-1.039a43.9,43.9,0,0,1,7.862-1.511h.306c5.267-.232,10.588.2,15.875.325.7.018,1.428.018,2.123.018a63.808,63.808,0,0,0,6.537-.25,57.148,57.148,0,0,1,7.214-.213h.149L1988.9-393.2l6.491-.4a14.859,14.859,0,0,0,13.911-15.75,14.819,14.819,0,0,0-.62-3.422Z" transform="translate(-1867.487 428.139)" fill="#e07b53"></path></g><g transform="translate(14.925 60.91)"><path d="M1838.614-655.053a27.522,27.522,0,0,1,.1-7.179,9.46,9.46,0,0,1,3.611-6.081c1.8-1.251,4.059-1.63,6.179-2.24,3.82-1.1,7.337-3.025,11.1-4.3s8.028-1.861,11.658-.261a11.384,11.384,0,0,1,6.419,8.544,14.353,14.353,0,0,1-2.671,10.447c-1.464,2.058-3.383,3.787-4.784,5.887-1.209,1.813-2,3.855-3.047,5.762a19.393,19.393,0,0,1-9.7,8.923c-3.928,1.521-11.258,1.487-14.82-1.256C1837.846-640.521,1839-649.788,1838.614-655.053Z" transform="translate(-1838.43 676.085)" fill="#dc464c"></path><g transform="translate(6.996 17.921)"><path d="M1876.191-624.521v21.171a10.8,10.8,0,0,1-10.894,10.608,10.781,10.781,0,0,1-10.871-10.608v-21.171a10.619,10.619,0,0,1,7.023-9.886,10.851,10.851,0,0,1,3.847-.7,11.075,11.075,0,0,1,7.7,3.115A10.409,10.409,0,0,1,1876.191-624.521Z" transform="translate(-1854.427 635.107)" fill="#ffb6a6"></path></g><g transform="translate(14.019 28.318)"><path d="M1885.228-600.747v7.448a22.614,22.614,0,0,1-13.976-14.2,23.023,23.023,0,0,1-.765-3.137,10.86,10.86,0,0,1,3.847-.7,11.075,11.075,0,0,1,7.695,3.114A10.41,10.41,0,0,1,1885.228-600.747Z" transform="translate(-1870.487 611.332)" fill="#161411"></path></g><g transform="translate(8.338 6.63)"><path d="M1886.508-646.815v8.209a14.353,14.353,0,0,1-14.489,14.109h-.035a14.353,14.353,0,0,1-14.489-14.109v-8.209a14.342,14.342,0,0,1,14.489-14.109h.035a14.589,14.589,0,0,1,10.421,4.332,14.089,14.089,0,0,1,3.6,6.22A14.245,14.245,0,0,1,1886.508-646.815Z" transform="translate(-1857.495 660.924)" fill="#ffb6a6"></path></g><g transform="translate(3.185 24.033)"><path d="M1855.005-609.873a6.286,6.286,0,0,1-8.462-2.208,5.947,5.947,0,0,1,2.267-8.24,6.287,6.287,0,0,1,8.462,2.208A5.947,5.947,0,0,1,1855.005-609.873Z" transform="translate(-1845.712 621.13)" fill="#dc464c"></path></g><g transform="translate(7.758 6.065)"><path d="M1885.855-651.242a14.682,14.682,0,0,0-3.743-6.467,15.277,15.277,0,0,0-10.874-4.508,14.893,14.893,0,0,0-15.069,14.676v8.122l.636-.06a13.947,13.947,0,0,0,11.7-8.618l1.13-2.815,5.7.842a25.3,25.3,0,0,0,9.614-.377l1.055-.229Z" transform="translate(-1856.169 662.217)" fill="#dc464c"></path></g><g transform="translate(4.632 23.505)"><path d="M1858.314-611.079a6.286,6.286,0,0,1-8.462-2.208,5.946,5.946,0,0,1,2.267-8.24,6.287,6.287,0,0,1,8.462,2.208A5.947,5.947,0,0,1,1858.314-611.079Z" transform="translate(-1849.021 622.336)" fill="#ffb6a6"></path></g></g><g transform="translate(8.058 108.368)"><path d="M1840.688-566.477a22.075,22.075,0,0,0-13.473,11.881c-2.524,5.219-2.824,10.338-3.439,15.939-1.793,16.326-1.185,29.606,1.042,45.831,11.215.624,49.242,6.639,55.325-4.574,3.054-5.631.731-22.347.206-28.767-.781-9.561-2.629-19.242-7.492-27.371C1866.2-564.665,1852.066-570.029,1840.688-566.477Z" transform="translate(-1822.727 567.564)" fill="#5a8dc9"></path></g><g transform="translate(0 162.542)"><path d="M1807.7-440.489c4.831-4.3,11.257-3.121,17.058-2.831a58.01,58.01,0,0,1,18.038,3.706,8.863,8.863,0,0,1,3.136,1.862c.009.02.029.041.038.062a.5.5,0,0,1-.185.681.5.5,0,0,1-.421.036,54.857,54.857,0,0,0-17.283-2.344.54.54,0,0,0-.547.533v.006a.565.565,0,0,0,.591.52,53.521,53.521,0,0,1,17.984,2.637.5.5,0,0,1,.35.52c-.018.17-.044.35-.074.53a.528.528,0,0,1-.638.388l-.023-.006a60.8,60.8,0,0,0-17.788-1.843.543.543,0,0,0-.548.538v.01a.558.558,0,0,0,.591.51,60.248,60.248,0,0,1,17.4,1.8.474.474,0,0,1,.37.56.467.467,0,0,1-.037.109,7.609,7.609,0,0,1-.493.883.5.5,0,0,1-.542.207c-5.163-1.108-11.4-1.981-16.655-1.312a.539.539,0,0,0-.49.585v.007a.579.579,0,0,0,.643.461c4.665-.6,10.18.074,14.956,1.022a.474.474,0,0,1,.416.525.474.474,0,0,1-.255.367c-1.554.766-3.884-.013-5.533-.026a40.093,40.093,0,0,0-7.559.5c-.092.016-.183.032-.285.057-2.322.5-10.142.561-12.45,2.166l.153.688-.409-.5v7.828c-4.286-1.5-10.116-5.094-11.717-8.287C1803.343-431.61,1804.125-437.312,1807.7-440.489Z" transform="translate(-1804.302 443.686)" fill="#e07b53"></path></g><path d="M1928.442-567.2c3-3.823,1.978-4.872-1.246-1.128,2.721-3.568,1.82-5.078-1.148-1.093,3.663-5.416-1.693-.924-2.918,1.146,1.344-3.579-.049-3.385-1.559-.469a16.865,16.865,0,0,1-3.572,4.161l-22.07,19.647-6.746-6.4c-3.939,5.256-7.951,10.455-13.257,14.209l11.407,9.309a11.72,11.72,0,0,0,16.573.252h0l.128-.125,20.292-30.289c.307-.348.617-.691.917-1.045C1926.9-560.681,1935.643-574.177,1928.442-567.2Z" transform="translate(-1844.603 678.426)" fill="#ffb6a6"></path><g transform="translate(93.256 26.75)"><path d="M2019.844-738.315c-.876-.245-1.851.53-2.184,1.735s.1,2.369.973,2.615,1.857-.56,2.184-1.735C2021.148-736.9,2020.719-738.07,2019.844-738.315Z" transform="translate(-2017.547 745.286)" fill="#161411"></path><path d="M2054.739-728.661c-.875-.245-1.851.53-2.183,1.736s.1,2.376.979,2.616,1.864-.564,2.185-1.741A2.023,2.023,0,0,0,2054.739-728.661Z" transform="translate(-2037.183 739.854)" fill="#161411"></path><g transform="translate(7.126 9.54)"><path d="M2034.242-727.121h0a.5.5,0,0,1-.39-.587l.894-4.28a.505.505,0,0,1,.58-.385c.292-.007.447.319.395.594l-.894,4.28a.493.493,0,0,1-.58.385Z" transform="translate(-2033.842 732.382)" fill="#161411"></path></g><g transform="translate(1.272)"><path d="M2020.471-753.394v0a.5.5,0,0,1,.362-.6,6.823,6.823,0,0,1,5.392.937.5.5,0,0,1,.136.688.5.5,0,0,1-.694.135,5.8,5.8,0,0,0-4.582-.8.478.478,0,0,1-.212.01A.5.5,0,0,1,2020.471-753.394Z" transform="translate(-2020.456 754.196)" fill="#161411"></path></g><g transform="translate(15.128 3.325)"><path d="M2057.853-744.3a10.285,10.285,0,0,0-5.186-1.275.492.492,0,0,1-.057,0,.481.481,0,0,1-.469-.491c0-.011,0-.021,0-.031a.493.493,0,0,1,.49-.5,11.319,11.319,0,0,1,5.689,1.4.5.5,0,0,1,.2.656.492.492,0,0,1-.523.248A.541.541,0,0,1,2057.853-744.3Z" transform="translate(-2052.14 746.594)" fill="#161411"></path></g><g transform="translate(3.457 16.918)"><path d="M2025.633-714.63a.5.5,0,0,1-.073-.694.5.5,0,0,1,.7-.078,7.207,7.207,0,0,0,6.131,1.349.51.51,0,0,1,.093-.024.5.5,0,0,1,.568.417.5.5,0,0,1-.416.568,8.088,8.088,0,0,1-3.426.084A8.106,8.106,0,0,1,2025.633-714.63Z" transform="translate(-2025.452 715.51)" fill="#f9f7f0"></path></g></g><g transform="translate(38.517 82.567)"><path d="M1914.187-616.166c.06.675.514,1.213,1.017,1.167s.855-.638.795-1.329-.514-1.213-1.017-1.168S1914.127-616.854,1914.187-616.166Z" transform="translate(-1904.646 621.462)" fill="#161411"></path><path d="M1894.158-614.418c.057.675.514,1.213,1.017,1.171s.858-.638.8-1.329-.514-1.213-1.017-1.168S1894.1-615.106,1894.158-614.418Z" transform="translate(-1893.376 620.476)" fill="#161411"></path><g transform="translate(6.355 4.733)"><path d="M1907.243-612.756a.273.273,0,0,1-.278-.268l-.056-2.427c0-.155.117-.318.275-.284a.28.28,0,0,1,.278.268l.056,2.427a.277.277,0,0,1-.272.281h0Z" transform="translate(-1906.909 615.74)" fill="#161411"></path></g><g transform="translate(8.169)"><path d="M1914.141-625.7a.253.253,0,0,1-.115-.027,3.22,3.22,0,0,0-2.582-.024.28.28,0,0,1-.365-.144.276.276,0,0,1,.144-.362,3.786,3.786,0,0,1,3.038.032.276.276,0,0,1,.136.366h0A.279.279,0,0,1,1914.141-625.7Z" transform="translate(-1911.057 626.562)" fill="#161411"></path></g><g transform="translate(0 0.505)"><path d="M1892.65-624.564a.273.273,0,0,1-.261-.188.277.277,0,0,1,.175-.338,6.286,6.286,0,0,1,3.246-.188.273.273,0,0,1,.217.32l0,.017a.267.267,0,0,1-.306.221l-.031-.007a5.714,5.714,0,0,0-2.959.173A.289.289,0,0,1,1892.65-624.564Z" transform="translate(-1892.378 625.408)" fill="#161411"></path></g><g transform="translate(4.348 9.225)"><path d="M1904.366-604.427a4.483,4.483,0,0,1-1.861-.391.277.277,0,0,1-.17-.352.277.277,0,0,1,.352-.171.268.268,0,0,1,.049.023,4,4,0,0,0,3.483-.118.28.28,0,0,1,.375.114.277.277,0,0,1-.11.371A4.5,4.5,0,0,1,1904.366-604.427Z" transform="translate(-1902.319 605.468)" fill="#f9f7f0"></path></g></g></g></g></g></svg> 