<?xml version="1.0" encoding="UTF-8" standalone="no" ?>
<!DOCTYPE svg PUBLIC "-//W3C//DTD SVG 1.1//EN" "http://www.w3.org/Graphics/SVG/1.1/DTD/svg11.dtd">
<svg xmlns="http://www.w3.org/2000/svg" xmlns:xlink="http://www.w3.org/1999/xlink" version="1.1" width="1080" height="1080" viewBox="0 0 1080 1080" xml:space="preserve">
<desc>Created with Fabric.js 5.2.4</desc>
<defs>
</defs>
<g transform="matrix(1 0 0 1 540 540)" id="bbdcd3ee-f276-40a8-bc6e-bf7cd8e9f231"  >
<rect style="stroke: none; stroke-width: 1; stroke-dasharray: none; stroke-linecap: butt; stroke-dashoffset: 0; stroke-linejoin: miter; stroke-miterlimit: 4; fill: rgb(255,255,255); fill-rule: nonzero; opacity: 1; visibility: hidden;" vector-effect="non-scaling-stroke"  x="-540" y="-540" rx="0" ry="0" width="1080" height="1080" />
</g>
<g transform="matrix(1 0 0 1 540 540)" id="2fa090b4-7c9f-4d45-83e0-f4630e616672"  >
</g>
<g transform="matrix(1 0 0 1 540 540)" id="cee1d0e3-faad-4767-8dde-d349978c739f"  >
<path style="stroke: rgb(0,0,0); stroke-width: 0; stroke-dasharray: none; stroke-linecap: butt; stroke-dashoffset: 0; stroke-linejoin: miter; stroke-miterlimit: 4; fill: rgb(255,255,255); fill-rule: nonzero; opacity: 1;" vector-effect="non-scaling-stroke"  transform=" translate(-512.2, -512.01)" d="M 534.613 0.853 C 590.5060000000001 0 645.9730000000001 0.426 701.44 0 C 704.8530000000001 65.28 728.32 131.84 776.1070000000001 177.92 C 823.8940000000001 225.27999999999997 891.3070000000001 247.04 957.0140000000001 254.293 L 957.0140000000001 426.24 C 895.5740000000001 424.107 833.7070000000001 411.307 777.8140000000001 384.853 C 753.494 373.76 730.8810000000001 359.68 708.6940000000001 345.173 C 708.267 469.76 709.1210000000001 594.346 707.8410000000001 718.5060000000001 C 704.4280000000001 778.239 684.8010000000002 837.546 650.2410000000001 886.613 C 594.3480000000001 968.533 497.4940000000001 1021.866 398.08100000000013 1023.5730000000001 C 337.06800000000015 1026.986 276.05400000000014 1010.3460000000001 224.00100000000012 979.6260000000001 C 137.81400000000014 928.8530000000001 77.22800000000012 835.839 68.26800000000011 735.999 C 67.41500000000012 714.666 66.98800000000011 693.332 67.84100000000011 672.426 C 75.5210000000001 591.359 115.6280000000001 513.706 177.9210000000001 460.79900000000004 C 248.7480000000001 399.35900000000004 347.7340000000001 369.91900000000004 440.3210000000001 387.41200000000003 C 441.1740000000001 450.559 438.6140000000001 513.705 438.6140000000001 576.8520000000001 C 396.3740000000001 563.1990000000001 346.8810000000001 567.0390000000001 309.7610000000001 592.6390000000001 C 282.8810000000001 610.1320000000002 262.40100000000007 637.0120000000002 251.7340000000001 667.3060000000002 C 242.7740000000001 689.0660000000001 245.3340000000001 712.9590000000002 245.76100000000008 735.9990000000001 C 256.0010000000001 805.9720000000001 323.4140000000001 864.8520000000001 395.09400000000005 858.4520000000001 C 442.88100000000003 858.0250000000001 488.53400000000005 830.2920000000001 513.2810000000001 789.7590000000001 C 521.388 775.6790000000001 530.3480000000001 761.1720000000001 530.7740000000001 744.5320000000002 C 535.0410000000002 668.1590000000001 533.3340000000001 592.2120000000002 533.7610000000001 515.8390000000002 C 534.1880000000001 343.89200000000017 533.3340000000001 172.37200000000018 534.614 0.8520000000002028 z" stroke-linecap="round" />
</g>
</svg>